# xmcd
#
# Track frame offsets:
#	150
#	31114
#	52578
#	79817
#	104351
#	128075
#	150231
#	170923
#	193265
#	216468
#	240051
#	258845
#	273378
#
# Disc length: 3895 seconds
#
# Revision: 1
# Processed by: cddbd v1.5.2PL0 Copyright (c) Steve Scherf et al.
# Submitted via: audiograbber 1.83.01
#
DISCID=a30f350d
DTITLE=Zappa and The Wild Irish Lasses - Folk Meets Blues  ( CD 1 )
DYEAR=2006
DGENRE=Blues and Folk
TTITLE0=The Beautiful Valley
TTITLE1=Will The Circle Be Unbroken
TTITLE2=Blind Man Blues
TTITLE3=Fog On The Tyne
TTITLE4=St.James Infirmary
TTITLE5=Banjo Picking Girl
TTITLE6=Will You Go Lassie Go
TTITLE7=Down By The Riverside
TTITLE8=Ring Of Fire
TTITLE9=Pop Star
TTITLE10=One Meatball
TTITLE11=Soldier´s Joy - Old Joe Clark
TTITLE12=Whiskey In The Jar
EXTD=
EXTT0=
EXTT1=
EXTT2=
EXTT3=
EXTT4=
EXTT5=
EXTT6=
EXTT7=
EXTT8=
EXTT9=
EXTT10=
EXTT11=
EXTT12=
PLAYORDER=
